<?xml version="1.0" encoding="UTF-8"?>
<svg width="662px" height="222px" viewBox="0 0 662 222" version="1.1" xmlns="http://www.w3.org/2000/svg" xmlns:xlink="http://www.w3.org/1999/xlink">
    <!-- Generator: Sketch 46.2 (44496) - http://www.bohemiancoding.com/sketch -->
    <title>Metodologia</title>
    <desc>Created with Sketch.</desc>
    <defs></defs>
    <g id="Welcome" stroke="none" stroke-width="1" fill="none" fill-rule="evenodd">
        <g id="Desktop-HD" transform="translate(-403.000000, -1738.000000)">
            <g id="Metodologia" transform="translate(401.000000, 1736.000000)">
                <g id="reading" transform="translate(47.218254, 35.894035)" fill-rule="nonzero" fill="#008BD3">
                    <path d="M55.8010198,55.7507082 L55.8010198,46.9638527 L52.0929178,48.4065722 L52.0820397,48.3820963 L51.9936544,48.2216431 C50.5726912,46.0092918 48.2746742,44.4700283 45.6870255,44.0009065 L36.7641926,42.3773371 L36.7641926,41.6729745 C40.1010765,39.7352975 42.5445892,36.4296884 43.3060623,32.5216997 C45.7781303,32.0104249 47.6423796,29.8171105 47.6423796,27.1954674 L47.6423796,13.7649858 C47.6423796,9.96985836 45.1567139,6.66016997 41.5505949,5.58322946 L40.8707082,4.90334278 C37.7078754,1.74050992 33.5034561,0 29.0311615,0 C19.7996601,0 12.288272,7.51002833 12.288272,16.7428895 L12.288272,27.1954674 C12.288272,29.8171105 14.1525212,32.0104249 16.6245892,32.5216997 C17.3874221,36.4296884 19.8295751,39.7366572 23.1664589,41.6729745 L23.1664589,42.3773371 L14.2449858,43.9995467 C11.6600567,44.4686686 9.36339943,46.0052125 7.94107649,48.216204 L7.85949008,48.4147309 L4.12963173,46.9638527 L4.12963173,55.7507082 C1.88056657,55.7507082 0.0503116147,57.5809632 0.0503116147,59.8300283 L0.0503116147,65.2691218 C0.0503116147,67.518187 1.88056657,69.3484419 4.12963173,69.3484419 L4.12963173,74.357847 L29.9653258,84.4065722 L55.8010198,74.357847 L55.8010198,69.3484419 C58.050085,69.3484419 59.8803399,67.518187 59.8803399,65.2691218 L59.8803399,59.8300283 C59.8803399,57.5809632 58.050085,55.7507082 55.8010198,55.7507082 Z M39.3124079,45.6054391 L45.2002266,46.6755807 C46.9339377,46.9910482 48.4691218,47.9918414 49.4930312,49.4168839 L36.3372238,54.5323513 L39.3124079,45.6054391 Z M26.0015864,42.9198867 C27.2566572,43.3033428 28.5865156,43.5127479 29.9653258,43.5127479 C31.344136,43.5127479 32.6739943,43.3033428 33.9290652,42.9198867 L29.9653258,45.8923513 L26.0015864,42.9198867 Z M27.8957507,47.7389235 L25.1204533,50.5128612 L23.3201133,45.1132011 L24.186289,44.9568272 L27.8957507,47.7389235 Z M35.7443626,44.958187 L36.6105382,45.1145609 L34.8101983,50.514221 L32.0349008,47.7402833 L35.7443626,44.958187 Z M43.5630595,29.5369972 L43.5630595,24.8539377 C44.3721246,25.325779 44.9228329,26.1933144 44.9228329,27.1954674 C44.9228329,28.1976204 44.3721246,29.0651558 43.5630595,29.5369972 Z M16.3675921,29.5369972 C15.5585269,29.0651558 15.0078187,28.1976204 15.0078187,27.1954674 C15.0078187,26.1933144 15.5585269,25.325779 16.3675921,24.8539377 L16.3675921,29.5369972 Z M16.3675921,20.3966006 L16.3675921,21.9494618 C15.8835127,22.0759207 15.4293484,22.266289 15.0078187,22.5124079 L15.0078187,16.7428895 C15.0078187,9.01121813 21.2981303,2.71954674 29.0311615,2.71954674 C32.7759773,2.71954674 36.2991501,4.17858357 38.9479887,6.8274221 L40.1473088,8.02810198 L40.5130878,8.11784703 C43.110255,8.76645892 44.9228329,11.0889518 44.9228329,13.7649858 L44.9228329,22.5124079 C44.5013031,22.266289 44.0471388,22.0745609 43.5630595,21.9494618 L43.5630595,20.3966006 L39.2512181,20.3966006 C35.5662323,20.3966006 32.0444193,18.6370538 29.8347875,15.6904249 L28.7537677,14.2463456 L26.051898,16.9495751 C23.8273088,19.1728045 20.8711615,20.3966006 17.7273654,20.3966006 L16.3675921,20.3966006 Z M19.0871388,29.9150142 L19.0871388,23.0535977 C22.4444193,22.7422096 25.5596601,21.2858924 27.9746176,18.8722946 L28.5035694,18.3433428 C31.229915,21.3525212 35.1569405,23.1161473 39.2512181,23.1161473 L40.8435127,23.1161473 L40.8435127,29.9150142 C40.8435127,35.9129745 35.9632861,40.7932011 29.9653258,40.7932011 C23.9673654,40.7932011 19.0871388,35.9129745 19.0871388,29.9150142 Z M14.7304249,46.6755807 L20.6182436,45.6054391 L23.5934278,54.5323513 L10.4349008,49.4155241 C11.4588102,47.9891218 12.9967139,46.9910482 14.7304249,46.6755807 Z M2.76985836,65.2691218 L2.76985836,59.8300283 C2.76985836,59.0794334 3.3803966,58.470255 4.12963173,58.470255 C6.37869688,58.470255 8.20895184,60.3005099 8.20895184,62.5495751 C8.20895184,64.7986402 6.37869688,66.6288952 4.12963173,66.6288952 C3.3803966,66.6288952 2.76985836,66.0197167 2.76985836,65.2691218 Z M28.6055524,80.958187 L6.84917847,72.4990368 L6.84917847,68.771898 C9.24645892,67.7194334 10.9284986,65.3303116 10.9284986,62.5495751 C10.9284986,59.7688385 9.24645892,57.3797167 6.84917847,56.3272521 L6.84917847,50.93983 L28.6055524,59.4003399 L28.6055524,80.958187 Z M24.5683853,54.9130878 L29.9653258,49.5147875 L35.3622663,54.911728 L29.9653258,57.0112181 L24.5683853,54.9130878 Z M53.0814731,72.4976771 L31.3250992,80.9568272 L31.3250992,59.4003399 L53.0814731,50.93983 L53.0814731,56.3272521 C50.6841926,57.3797167 49.002153,59.7688385 49.002153,62.5495751 C49.002153,65.3303116 50.6841926,67.7194334 53.0814731,68.771898 L53.0814731,72.4976771 Z M57.1607932,65.2691218 C57.1607932,66.0197167 56.550255,66.6288952 55.8010198,66.6288952 C53.5519547,66.6288952 51.7216997,64.7986402 51.7216997,62.5495751 C51.7216997,60.3005099 53.5519547,58.470255 55.8010198,58.470255 C56.550255,58.470255 57.1607932,59.0794334 57.1607932,59.8300283 L57.1607932,65.2691218 Z" id="Shape"></path>
                </g>
                <rect id="Rectangle" stroke="#008BD3" transform="translate(78.000000, 77.781746) rotate(45.000000) translate(-78.000000, -77.781746) " x="23.5" y="23.2817459" width="109" height="109" rx="5"></rect>
                <path d="M283,23.2817459 C280.514719,23.2817459 278.5,25.2964646 278.5,27.7817459 L278.5,127.781746 C278.5,130.267027 280.514719,132.281746 283,132.281746 L383,132.281746 C385.485281,132.281746 387.5,130.267027 387.5,127.781746 L387.5,27.7817459 C387.5,25.2964646 385.485281,23.2817459 383,23.2817459 L283,23.2817459 Z" id="Rectangle" stroke="#008BD3" transform="translate(333.000000, 77.781746) rotate(45.000000) translate(-333.000000, -77.781746) "></path>
                <rect id="Rectangle" stroke="#008BD3" transform="translate(587.781746, 77.781746) rotate(45.000000) translate(-587.781746, -77.781746) " x="533.281746" y="23.2817459" width="109" height="109" rx="5"></rect>
                <g id="student" transform="translate(553.000000, 45.000000)" fill-rule="nonzero" fill="#008BD3">
                    <path d="M70,47.8741211 L70,26.8302344 C70,24.2919141 67.9348633,22.2269141 65.3966797,22.2269141 L36.5636523,22.2269141 L36.5636523,21.6861914 C36.5636523,20.9762109 36.3125,20.3243359 35.8950977,19.8131445 C36.2047656,19.4341602 36.4207813,18.9802539 36.5132031,18.4883398 C37.6863867,17.7966797 38.4342383,16.5298438 38.4342383,15.1391406 C38.4342383,14.4823438 38.2651172,13.8404492 37.9482031,13.2685547 C38.2649805,12.6966602 38.4342383,12.0549023 38.4342383,11.3979688 C38.4342383,10.0130078 37.6922656,8.75738281 36.5417773,8.0653125 C36.5564063,7.9296875 36.5636523,7.79351563 36.5636523,7.65679688 C36.5636523,5.68681641 35.0961133,4.05302734 33.1968164,3.79148438 C32.5033789,2.62623047 31.2410547,1.88439453 29.8558203,1.88439453 C29.6779492,1.88439453 29.4983008,1.89806641 29.3183789,1.92541016 C28.5446875,1.29896484 27.5782227,0.949101563 26.5823633,0.949101563 C26.4493359,0.949101563 26.3160352,0.955800781 26.180957,0.969199219 C25.3491602,0.349726563 24.3479688,0.0138085937 23.309043,0.0138085937 C22.2701172,0.0138085937 21.2689258,0.349726563 20.4369922,0.969199219 C20.3017773,0.955800781 20.1684766,0.949101563 20.0355859,0.949101563 C19.0371289,0.949101563 18.0861133,1.28501953 17.3137891,1.90353516 C16.0818164,2.02644531 14.985332,2.73478516 14.3565625,3.79162109 C12.4572656,4.05302734 10.9897266,5.68681641 10.9897266,7.65679688 C10.9897266,7.79337891 10.9969727,7.9296875 11.0116016,8.0653125 C9.86125,8.75738281 9.11914063,10.0130078 9.11914063,11.3979688 C9.11914063,12.0549023 9.28826172,12.6966602 9.60517578,13.2685547 C9.28826172,13.8404492 9.11914063,14.4823438 9.11914063,15.1391406 C9.11914063,16.5298438 9.86685547,17.7966797 11.0403125,18.4883398 C11.0918555,18.7628711 11.1830469,19.0250977 11.3063672,19.2695508 C10.5500391,19.8078125 10.0544336,20.6892383 10.0544336,21.6860547 L10.0544336,23.5566406 C10.0544336,25.1923438 11.3851172,26.5233008 13.0210938,26.5233008 L13.5082227,26.5233008 L13.5879297,27.0212305 C13.7726367,28.175957 14.3691406,29.2243164 15.2676563,29.973125 L15.6663281,30.3053516 L15.6663281,33.3986133 C15.6663281,33.7406836 15.4464844,34.0383203 15.1194531,34.1388086 L6.92179688,36.6611328 C4.87949219,37.2896289 3.50724609,39.1475 3.50724609,41.2844141 L3.50724609,54.88875 C3.50724609,56.2404883 3.97564453,57.4843555 4.75685547,58.4691406 L2.26515625,58.4691406 C1.01609375,58.4691406 0,59.4852344 0,60.7342969 L0,63.0724609 C0,64.3215234 1.01609375,65.3376172 2.26515625,65.3376172 L67.7348437,65.3376172 C68.9839063,65.3376172 70,64.3215234 70,63.0724609 L70,60.7342969 C70,59.4852344 68.9839062,58.4691406 67.7348437,58.4691406 L55.8342969,58.4691406 L55.0353125,52.4774414 L65.3966797,52.4774414 C67.9348633,52.4774414 70,50.4124414 70,47.8741211 Z M13.0208203,24.3312891 C12.5938477,24.3312891 12.2463086,23.9838867 12.2463086,23.5567773 L12.2463086,21.6861914 C12.2463086,21.4031836 12.4005273,21.1577734 12.6277539,21.0225586 L13.1572656,24.3312891 L13.0208203,24.3312891 Z M13.1825586,17.9775586 C13.1869336,17.9443359 13.1910352,17.91125 13.194043,17.8776172 C13.2395703,17.3766797 12.9381055,16.9089648 12.4631445,16.7433984 C11.774082,16.5033203 11.3111523,15.8586914 11.3111523,15.1392773 C11.3111523,14.6092187 11.5539648,14.228457 11.7575391,14.0023242 C12.1329687,13.585332 12.1329687,12.9520508 11.7574023,12.5350586 C11.5536914,12.3089258 11.3110156,11.9281641 11.3110156,11.3981055 C11.3110156,10.6343945 11.8316406,9.96009766 12.5773047,9.75830078 C12.8794531,9.67640625 13.1323828,9.46941406 13.2718359,9.18914062 C13.4115625,8.90900391 13.4246875,8.58238281 13.3080664,8.29185547 C13.2239844,8.08308594 13.1814648,7.86939453 13.1814648,7.65707031 C13.1814648,6.72765625 13.9268555,5.96900391 14.8513477,5.94767578 C14.8979687,5.95396484 14.9448633,5.95916016 14.9925781,5.96203125 C15.4833984,5.99019531 15.9315625,5.69173828 16.0928906,5.22853516 C16.3290039,4.55068359 16.956543,4.09185547 17.6617383,4.07695312 C17.6829297,4.07845703 17.7042578,4.07941406 17.7257227,4.0796875 C18.0219922,4.08324219 18.3028125,3.97195312 18.5125391,3.76619141 C18.9235156,3.36314453 19.464375,3.14111328 20.0353125,3.14111328 C20.1831055,3.14111328 20.3397852,3.16025391 20.5142383,3.19949219 C20.8684766,3.27919922 21.2399414,3.17816406 21.5050391,2.92933594 C22.0020117,2.46298828 22.6425391,2.20609375 23.3089062,2.20609375 C23.9752734,2.20609375 24.6158008,2.46298828 25.1126367,2.92947266 C25.3775977,3.17830078 25.7489258,3.27947266 26.1034375,3.19962891 C26.2778906,3.16025391 26.4345703,3.14125 26.5823633,3.14125 C27.1944531,3.14125 27.7644336,3.39800781 28.1873047,3.86408203 C28.4801562,4.186875 28.9363867,4.30541016 29.3492773,4.16623047 C29.5283789,4.1059375 29.6942187,4.07654297 29.855957,4.07654297 C30.5753711,4.07654297 31.2201367,4.53947266 31.4602148,5.22839844 C31.621543,5.69146484 32.0701172,5.99115234 32.5605273,5.96189453 C32.6052344,5.95929687 32.6492578,5.954375 32.7014844,5.94753906 C33.6259766,5.96873047 34.3715039,6.72751953 34.3715039,7.65693359 C34.3715039,7.86925781 34.3289844,8.08294922 34.2450391,8.29158203 C34.1282812,8.58210937 34.1414062,8.90873047 34.2811328,9.18900391 C34.4208594,9.46927734 34.6736523,9.67640625 34.9759375,9.75816406 C35.7213281,9.95996094 36.2420898,10.6342578 36.2420898,11.3979687 C36.2420898,11.9280273 35.9992773,12.3087891 35.7957031,12.5349219 C35.4201367,12.9517773 35.4201367,13.5851953 35.7957031,14.0021875 C35.9994141,14.2283203 36.2420898,14.609082 36.2420898,15.1391406 C36.2420898,15.8585547 35.7791602,16.5033203 35.0900977,16.7432617 C34.6151367,16.9088281 34.3136719,17.376543 34.3591992,17.8774805 C34.362207,17.9111133 34.3663086,17.9444727 34.370957,17.9776953 C34.3564648,18.3104687 34.1234961,18.599082 33.7944141,18.686582 C33.7592773,18.6958789 32.7110547,18.7195312 32.7110547,18.7195312 L32.0807813,14.9378906 C31.9875391,14.3785742 31.4819531,13.9827734 30.9178516,14.0251562 C30.8669922,14.0289844 30.8172266,14.0351367 30.7671875,14.0419727 L30.7607617,14.042793 C30.1991211,14.0328125 29.6795898,13.7474805 29.3663672,13.2749805 C29.1632031,12.9688672 28.8204492,12.784707 28.4529492,12.784707 C28.0855859,12.784707 27.7425586,12.9688672 27.5395312,13.2748437 C27.2205664,13.7558203 26.6880469,14.0429297 26.1146484,14.0429297 C25.5413867,14.0429297 25.0088672,13.7558203 24.6897656,13.2748437 C24.4866016,12.9687305 24.1438477,12.7845703 23.7763477,12.7845703 C23.4089844,12.7845703 23.065957,12.9687305 22.8629297,13.274707 C22.5439648,13.7556836 22.0114453,14.042793 21.4380469,14.042793 C20.8647852,14.042793 20.3322656,13.7556836 20.0131641,13.274707 C19.81,12.9685937 19.4672461,12.7844336 19.0997461,12.7844336 C18.7323828,12.7844336 18.3893555,12.9685937 18.1863281,13.2745703 C17.8729687,13.7470703 17.3534375,14.0324023 16.7919336,14.0423828 L16.7855078,14.0415625 C16.7357422,14.0347266 16.6855664,14.0285742 16.634707,14.0247461 C16.0707422,13.9816797 15.5651562,14.3783008 15.4719141,14.9374805 L14.8417773,18.7195312 C14.8417773,18.7195312 13.7936914,18.6960156 13.7585547,18.6867187 C13.4297461,18.5992187 13.1966406,18.310332 13.1825586,17.9775586 Z M34.3716406,21.6861914 L34.3716406,22.2269141 L33.7974219,22.2269141 L33.9901953,21.0225586 C34.2174219,21.1577734 34.3716406,21.4031836 34.3716406,21.6861914 Z M14.8298828,20.9116797 L14.9782227,20.9116797 C15.9751758,20.9116797 16.8177734,20.1977344 16.9819727,19.2143164 L17.4897461,16.1669922 C18.076543,16.0559766 18.6264258,15.8116602 19.1001563,15.4560547 C19.7655664,15.9557617 20.5816406,16.2352148 21.4383203,16.2352148 C22.2948633,16.2352148 23.1110742,15.955625 23.7764844,15.4560547 C24.4418945,15.9557617 25.2579688,16.2352148 26.1146484,16.2352148 C26.9711914,16.2352148 27.7874023,15.955625 28.4528125,15.4560547 C28.9264063,15.8117969 29.4764258,16.0558398 30.0632227,16.1669922 L30.5709961,19.2144531 C30.690625,19.9322266 31.1726953,20.5048047 31.811582,20.7626562 L31.5773828,22.2269141 L30.3233984,22.2269141 C27.7850781,22.2269141 25.7200781,24.2920508 25.7200781,26.8302344 L25.7200781,31.6946875 C25.522793,31.7716602 25.3119727,31.8134961 25.0988281,31.8134961 L21.5188477,31.8134961 C21.1196289,31.8134961 20.7309375,31.6728125 20.4242773,31.4171484 L16.6703906,28.2888867 C16.1790234,27.8794141 15.8529492,27.3062891 15.7519141,26.6747852 L14.8298828,20.9116797 Z M15.7639453,36.2340234 C17.0166992,35.8486133 17.8582031,34.7090625 17.8582031,33.3986133 L17.8582031,32.1320508 L19.0211328,33.10125 C19.7209961,33.6844922 20.6080273,34.0056445 21.5191211,34.0056445 L25.0991016,34.0056445 C25.3075977,34.0056445 25.5154102,33.9878711 25.7203516,33.9545117 L25.7203516,41.0070117 C25.0772266,41.1120117 24.4234375,41.1664258 23.7671875,41.1664258 C20.110918,41.1664258 16.6628711,39.4935352 14.3926563,36.6560742 L15.7639453,36.2340234 Z M5.69939453,41.2842773 C5.69939453,40.1157422 6.44984375,39.0997852 7.5665625,38.7560742 L12.1667383,37.3407617 C14.8266016,41.1099609 19.1567578,43.3583008 23.7671875,43.3583008 C24.4219336,43.3583008 25.0747656,43.3122266 25.7203516,43.2232227 L25.7203516,47.8741211 C25.7203516,50.4124414 27.7853516,52.4774414 30.3236719,52.4774414 L35.0731445,52.4774414 L35.0731445,58.3959961 C35.0731445,58.4207422 35.0751953,58.4448047 35.0768359,58.4690039 L29.0814453,58.4690039 L29.0814453,57.2267773 C29.0814453,54.688457 27.0163086,52.623457 24.478125,52.623457 L12.7870313,52.623457 C12.7466992,52.623457 12.7140234,52.5907812 12.7140234,52.5504492 L12.7140234,45.5358203 C12.7140234,44.9305664 12.2233398,44.4397461 11.6179492,44.4397461 C11.0125586,44.4397461 10.521875,44.9304297 10.521875,45.5358203 L10.521875,52.5504492 C10.521875,53.7995117 11.5379688,54.8156055 12.7870313,54.8156055 L19.874668,54.8156055 L19.874668,58.4690039 L9.27978516,58.4690039 C7.30556641,58.4690039 5.69939453,56.862832 5.69939453,54.8886133 L5.69939453,41.2842773 Z M26.8892969,57.2269141 L26.8892969,58.4691406 L22.0668164,58.4691406 L22.0668164,54.8157422 L24.478125,54.8157422 C25.8075781,54.8156055 26.8892969,55.8973242 26.8892969,57.2269141 Z M67.7348438,60.6611523 C67.7751758,60.6611523 67.8078516,60.6938281 67.8078516,60.7341602 L67.8078516,63.0723242 C67.8078516,63.1126562 67.7751758,63.145332 67.7348438,63.145332 L2.26515625,63.145332 C2.22482422,63.145332 2.19214844,63.1126562 2.19214844,63.0723242 L2.19214844,60.7341602 C2.19214844,60.6938281 2.22482422,60.6611523 2.26515625,60.6611523 L67.7348438,60.6611523 Z M37.2614648,58.4691406 C37.2631055,58.4449414 37.2651562,58.4207422 37.2651562,58.3961328 L37.2651562,52.4775781 L40.6847656,52.4775781 L39.8857813,58.4692773 L37.2614648,58.4692773 L37.2614648,58.4691406 Z M42.0973438,58.4691406 L43.9995117,44.2026758 C44.081543,43.5879883 44.6107813,43.1246484 45.2309375,43.1246484 L50.4894141,43.1246484 C51.1094336,43.1246484 51.6388086,43.5879883 51.7207031,44.2026758 L53.6230078,58.4691406 L42.0973438,58.4691406 Z M54.8748047,50.2854297 C54.8305078,50.2854297 54.7873047,50.2888477 54.7442383,50.2939062 L53.8934375,43.9129687 C53.6668945,42.2139648 52.203457,40.9326367 50.4894141,40.9326367 L45.2309375,40.9326367 C43.5168945,40.9326367 42.0533203,42.2139648 41.8267773,43.9129687 L40.9759766,50.2939062 C40.9331836,50.2888477 40.889707,50.2854297 40.8454102,50.2854297 L30.3235352,50.2854297 C28.9939453,50.2854297 27.9122266,49.2037109 27.9122266,47.8741211 L27.9122266,26.8302344 C27.9122266,25.5006445 28.9939453,24.4189258 30.3235352,24.4189258 L65.3966797,24.4189258 C66.7262695,24.4189258 67.8079883,25.5006445 67.8079883,26.8302344 L67.8079883,47.8741211 C67.8079883,49.2037109 66.7262695,50.2854297 65.3966797,50.2854297 L54.8748047,50.2854297 L54.8748047,50.2854297 Z" id="Shape"></path>
                    <path d="M47.8601758,31.579707 C45.9664844,31.579707 44.4259375,33.1202539 44.4259375,35.0139453 C44.4259375,36.9076367 45.9664844,38.4481836 47.8601758,38.4481836 C49.7538672,38.4481836 51.2944141,36.9076367 51.2944141,35.0139453 C51.2944141,33.1203906 49.7537305,31.579707 47.8601758,31.579707 Z M47.8601758,36.2561719 C47.1752148,36.2561719 46.6179492,35.6989062 46.6179492,35.0139453 C46.6179492,34.3289844 47.1752148,33.7717187 47.8601758,33.7717187 C48.5451367,33.7717187 49.1024023,34.3289844 49.1024023,35.0139453 C49.1022656,35.6989063 48.5451367,36.2561719 47.8601758,36.2561719 Z" id="Shape"></path>
                </g>
                <g id="presentation" transform="translate(298.000000, 43.000000)" fill-rule="nonzero" fill="#008BD3">
                    <path d="M10.9375,19.6875 C10.9375,23.3067188 13.8807812,26.25 17.5,26.25 C21.1192188,26.25 24.0625,23.3067188 24.0625,19.6875 C24.0625,16.0682812 21.1192188,13.125 17.5,13.125 C13.8807812,13.125 10.9375,16.0682813 10.9375,19.6875 Z M21.875,19.6875 C21.875,22.1003125 19.9128125,24.0625 17.5,24.0625 C15.0871875,24.0625 13.125,22.1003125 13.125,19.6875 C13.125,17.2746875 15.0871875,15.3125 17.5,15.3125 C19.9128125,15.3125 21.875,17.2746875 21.875,19.6875 Z" id="Shape"></path>
                    <path d="M33.5857812,31.3982813 L41.2420312,23.7420313 C41.6696875,23.314375 41.6696875,22.623125 41.2420312,22.1954688 L37.9607812,18.9142188 C37.5560938,18.5095313 36.9085937,18.4854688 36.4754688,18.8573438 L28.9460938,25.3104688 L21.6507812,28.4375 L8.75,28.4375 C8.43390625,28.4375 8.1353125,28.573125 7.9275,28.8115625 L0.27125,37.5615625 C0.0153125,37.8535938 -0.06671875,38.259375 0.056875,38.6279688 L3.338125,48.4717188 C3.43875,48.7714063 3.6640625,49.0142188 3.9571875,49.135625 C4.2503125,49.2548438 4.57953125,49.245 4.865,49.1039062 L9.24,46.9164062 C9.6140625,46.729375 9.84375,46.3542188 9.84375,45.9582812 L9.84375,64.53125 C9.84375,67.5467187 12.2970313,70 15.3125,70 L24.0625,70 C24.66625,70 25.15625,69.5110937 25.15625,68.90625 L25.15625,35.6759375 L33.3014062,31.6028125 C33.4075,31.5514063 33.5026562,31.4814063 33.5857812,31.3982813 Z M9.84375,45.915625 C9.84375,45.7865625 9.81640625,45.6575 9.76609375,45.530625 L7.81484375,40.6546875 L9.84375,38.1182813 L9.84375,45.915625 Z M23.5735938,34.0210938 C23.2028125,34.2070312 22.96875,34.5854688 22.96875,35 L22.96875,67.8125 L18.59375,67.8125 L18.59375,50.3125 C18.59375,49.7076563 18.10375,49.21875 17.5,49.21875 C16.89625,49.21875 16.40625,49.7076563 16.40625,50.3125 L16.40625,67.8125 L15.3125,67.8125 C13.5034375,67.8125 12.03125,66.3403125 12.03125,64.53125 L12.03125,35 C12.03125,34.5351562 11.738125,34.1217188 11.2995313,33.9685938 C10.8620312,33.814375 10.373125,33.954375 10.0832813,34.3164063 L5.70828125,39.7851562 C5.4621875,40.0925 5.4009375,40.5092188 5.54640625,40.8745313 L7.3609375,45.4092188 L5.01375,46.5828125 L2.3296875,38.530625 L9.2465625,30.625 L21.875,30.625 C22.0226563,30.625 22.1703125,30.5954688 22.3059375,30.5364063 L29.9621875,27.2551563 C30.0639062,27.2114063 30.1590625,27.1523438 30.2432813,27.0801563 L37.130625,21.1782813 L38.9221875,22.96875 L32.165,29.7259375 L23.5735938,34.0210938 Z" id="Shape"></path>
                    <polygon id="Shape" points="15.3125 35 16.40625 35 16.40625 43.75 18.59375 43.75 18.59375 35 19.6875 35 19.6875 32.8125 15.3125 32.8125"></polygon>
                    <path d="M70,54.6875 C70,51.0682813 67.0567187,48.125 63.4375,48.125 C61.1559375,48.125 59.145625,49.2964062 57.96875,51.0671875 C56.791875,49.2953125 54.7815625,48.125 52.5,48.125 C50.2184375,48.125 48.208125,49.2964062 47.03125,51.0671875 C45.854375,49.2953125 43.8440625,48.125 41.5625,48.125 C37.9432813,48.125 35,51.0682813 35,54.6875 C35,56.9690625 36.1714062,58.979375 37.9421875,60.15625 C36.1703125,61.333125 35,63.3434375 35,65.625 L35,70 L37.1875,70 L37.1875,65.625 C37.1875,63.2121875 39.1496875,61.25 41.5625,61.25 C43.9753125,61.25 45.9375,63.2121875 45.9375,65.625 L45.9375,70 L48.125,70 L48.125,65.625 C48.125,63.2121875 50.0871875,61.25 52.5,61.25 C54.9128125,61.25 56.875,63.2121875 56.875,65.625 L56.875,70 L59.0625,70 L59.0625,65.625 C59.0625,63.2121875 61.0246875,61.25 63.4375,61.25 C65.8503125,61.25 67.8125,63.2121875 67.8125,65.625 L67.8125,70 L70,70 L70,65.625 C70,63.3434375 68.8285938,61.333125 67.0578125,60.15625 C68.8285938,58.979375 70,56.9690625 70,54.6875 Z M52.5,50.3125 C54.9128125,50.3125 56.875,52.2746875 56.875,54.6875 C56.875,57.1003125 54.9128125,59.0625 52.5,59.0625 C50.0871875,59.0625 48.125,57.1003125 48.125,54.6875 C48.125,52.2746875 50.0882813,50.3125 52.5,50.3125 Z M37.1875,54.6875 C37.1875,52.2746875 39.1496875,50.3125 41.5625,50.3125 C43.9753125,50.3125 45.9375,52.2746875 45.9375,54.6875 C45.9375,57.1003125 43.9753125,59.0625 41.5625,59.0625 C39.1496875,59.0625 37.1875,57.1003125 37.1875,54.6875 Z M47.03125,62.0046875 C46.5445312,61.271875 45.915625,60.6429688 45.1828125,60.15625 C45.915625,59.6695312 46.5445312,59.040625 47.03125,58.3078125 C47.5179687,59.040625 48.146875,59.6695312 48.8796875,60.15625 C48.146875,60.6429688 47.5179687,61.271875 47.03125,62.0046875 Z M57.96875,62.0046875 C57.4820312,61.271875 56.853125,60.6429688 56.1203125,60.15625 C56.853125,59.6695312 57.4820312,59.040625 57.96875,58.3078125 C58.4554688,59.040625 59.084375,59.6695312 59.8171875,60.15625 C59.084375,60.6429688 58.4554688,61.271875 57.96875,62.0046875 Z M63.4375,59.0625 C61.0246875,59.0625 59.0625,57.1003125 59.0625,54.6875 C59.0625,52.2746875 61.0246875,50.3125 63.4375,50.3125 C65.8503125,50.3125 67.8125,52.2746875 67.8125,54.6875 C67.8125,57.1003125 65.8503125,59.0625 63.4375,59.0625 Z" id="Shape"></path>
                    <path d="M68.90625,0 L28.4375,0 C27.83375,0 27.34375,0.48890625 27.34375,1.09375 L27.34375,21.875 L29.53125,21.875 L29.53125,2.1875 L67.8125,2.1875 L67.8125,31.71875 C67.8125,33.5278125 66.3403125,35 64.53125,35 L30.625,35 L30.625,37.1875 L64.53125,37.1875 C67.5467187,37.1875 70,34.7342187 70,31.71875 L70,1.09375 C70,0.48890625 69.51,0 68.90625,0 Z" id="Shape"></path>
                    <path d="M45.9375,5.46875 L35,5.46875 C34.39625,5.46875 33.90625,5.95765625 33.90625,6.5625 L33.90625,10.9375 C33.90625,11.5423438 34.39625,12.03125 35,12.03125 L45.9375,12.03125 C46.54125,12.03125 47.03125,11.5423438 47.03125,10.9375 L47.03125,9.84375 L50.3125,9.84375 L50.3125,10.9375 C50.3125,11.5423438 50.8025,12.03125 51.40625,12.03125 L55.78125,12.03125 L55.78125,15.3125 L51.40625,15.3125 C50.8025,15.3125 50.3125,15.8014062 50.3125,16.40625 L50.3125,20.78125 C50.3125,21.3860938 50.8025,21.875 51.40625,21.875 L55.78125,21.875 L55.78125,25.15625 L51.40625,25.15625 C50.8025,25.15625 50.3125,25.6451562 50.3125,26.25 L50.3125,30.625 C50.3125,31.2298438 50.8025,31.71875 51.40625,31.71875 L62.34375,31.71875 C62.9475,31.71875 63.4375,31.2298438 63.4375,30.625 L63.4375,26.25 C63.4375,25.6451562 62.9475,25.15625 62.34375,25.15625 L57.96875,25.15625 L57.96875,21.875 L62.34375,21.875 C62.9475,21.875 63.4375,21.3860938 63.4375,20.78125 L63.4375,16.40625 C63.4375,15.8014062 62.9475,15.3125 62.34375,15.3125 L57.96875,15.3125 L57.96875,12.03125 L62.34375,12.03125 C62.9475,12.03125 63.4375,11.5423438 63.4375,10.9375 L63.4375,6.5625 C63.4375,5.95765625 62.9475,5.46875 62.34375,5.46875 L51.40625,5.46875 C50.8025,5.46875 50.3125,5.95765625 50.3125,6.5625 L50.3125,7.65625 L47.03125,7.65625 L47.03125,6.5625 C47.03125,5.95765625 46.54125,5.46875 45.9375,5.46875 Z M44.84375,9.84375 L36.09375,9.84375 L36.09375,7.65625 L44.84375,7.65625 L44.84375,9.84375 Z M61.25,29.53125 L52.5,29.53125 L52.5,27.34375 L61.25,27.34375 L61.25,29.53125 Z M61.25,19.6875 L52.5,19.6875 L52.5,17.5 L61.25,17.5 L61.25,19.6875 Z M52.5,7.65625 L61.25,7.65625 L61.25,9.84375 L52.5,9.84375 L52.5,7.65625 Z" id="Shape"></path>
                    <rect id="Rectangle-path" x="35" y="14.21875" width="12.03125" height="2.1875"></rect>
                    <rect id="Rectangle-path" x="42.65625" y="18.59375" width="4.375" height="2.1875"></rect>
                    <rect id="Rectangle-path" x="43.75" y="22.96875" width="3.28125" height="2.1875"></rect>
                    <rect id="Rectangle-path" x="40.46875" y="27.34375" width="6.5625" height="2.1875"></rect>
                    <path d="M4.375,10.9375 L4.921875,10.9375 L7.875,14.875 C8.08609375,15.155 8.41203125,15.3125 8.75,15.3125 C8.86484375,15.3125 8.981875,15.2939062 9.095625,15.255625 C9.54296875,15.106875 9.84375,14.6901562 9.84375,14.21875 L9.84375,10.9375 L16.40625,10.9375 C18.2153125,10.9375 19.6875,9.4653125 19.6875,7.65625 L19.6875,3.28125 C19.6875,1.4721875 18.2153125,0 16.40625,0 L4.375,0 C2.5659375,0 1.09375,1.4721875 1.09375,3.28125 L1.09375,7.65625 C1.09375,9.4653125 2.5659375,10.9375 4.375,10.9375 Z M3.28125,3.28125 C3.28125,2.6775 3.77234375,2.1875 4.375,2.1875 L16.40625,2.1875 C17.0089063,2.1875 17.5,2.6775 17.5,3.28125 L17.5,7.65625 C17.5,8.26 17.0089063,8.75 16.40625,8.75 L8.75,8.75 C8.14625,8.75 7.65625,9.23890625 7.65625,9.84375 L7.65625,10.9375 L6.34375,9.1875 C6.13703125,8.911875 5.81328125,8.75 5.46875,8.75 L4.375,8.75 C3.77234375,8.75 3.28125,8.26 3.28125,7.65625 L3.28125,3.28125 Z" id="Shape"></path>
                    <rect id="Rectangle-path" x="5.46875" y="4.375" width="9.84375" height="2.1875"></rect>
                </g>
                <text id="Introdução/-Nivelame" font-family="AvenirNext-Medium, Avenir Next" font-size="20" font-weight="400" fill="#008BD3">
                    <tspan x="24.03" y="196">Introdução/</tspan>
                    <tspan x="19.09" y="223">Nivelamento</tspan>
                </text>
                <text id="Bootcamp-Presencial" font-family="AvenirNext-Medium, Avenir Next" font-size="20" font-weight="400" fill="#008BD3">
                    <tspan x="285.52" y="196">Bootcamp</tspan>
                    <tspan x="286.16" y="223">Presencial</tspan>
                </text>
                <text id="Mentoria-Profissiona" font-family="AvenirNext-Medium, Avenir Next" font-size="20" font-weight="400" fill="#008BD3">
                    <tspan x="539.4" y="196">Mentoria</tspan>
                    <tspan x="528.18" y="223">Profissional</tspan>
                </text>
            </g>
        </g>
    </g>
</svg>